<svg width="17" height="20" fill="none" xmlns="http://www.w3.org/2000/svg"><path fill-rule="evenodd" clip-rule="evenodd" d="m8.305 17.064-.947.483c-.411.21-.896.062-1.16-.354l-.609-.957a.468.468 0 0 0-.337-.221l-1.032-.121c-.45-.053-.804-.457-.85-.967l-.107-1.175a.561.561 0 0 0-.194-.383l-.841-.692c-.366-.301-.496-.852-.311-1.321l.424-1.078a.61.61 0 0 0 0-.442l-.424-1.078c-.185-.468-.055-1.02.31-1.32l.842-.693c.11-.09.18-.23.195-.383l.106-1.175c.046-.51.4-.914.85-.967l1.032-.12a.468.468 0 0 0 .337-.222l.608-.957c.265-.416.75-.563 1.161-.354l.947.483a.424.424 0 0 0 .39 0l.947-.483c.412-.21.897-.062 1.161.354l.608.957c.08.125.202.206.337.221l1.033.121c.449.053.803.457.85.967l.106 1.175a.561.561 0 0 0 .194.383l.841.692c.366.301.496.853.312 1.321l-.425 1.078a.611.611 0 0 0 0 .442l.425 1.078c.184.469.054 1.02-.312 1.32l-.84.693c-.11.09-.181.23-.195.383l-.106 1.175c-.046.51-.401.914-.85.967l-1.033.12a.468.468 0 0 0-.337.222l-.608.957c-.264.416-.75.563-1.161.354l-.947-.483a.424.424 0 0 0-.39 0ZM5.927 9.032l-.808.92 2.713 3.086L11.997 8.3l-.808-.92-3.357 3.82-1.905-2.168Z" fill="#2761E7"/></svg>