<svg width="16" height="16" viewBox="0 0 16 16" fill="none" xmlns="http://www.w3.org/2000/svg">
<path d="M12.2264 0H3.77365C1.68952 0 0 1.68952 0 3.77365V12.2264C0 14.3105 1.68952 16 3.77365 16H12.2264C14.3105 16 16 14.3105 16 12.2264V3.77365C16 1.68952 14.3105 0 12.2264 0Z" fill="#8C44FF"/>
<path d="M14.2413 4.53946L14.2012 4.6398C14.0808 4.96168 13.9401 5.36319 13.8799 5.48404C13.8197 5.66475 13.7393 5.82569 13.6591 5.98645C13.86 6.38545 13.9632 6.82651 13.9601 7.27323C13.9601 7.71522 13.8799 8.11729 13.7186 8.45895C13.558 8.82074 13.3372 9.12174 13.0759 9.44381H13.0552C12.6336 9.94565 12.3117 10.4684 12.1109 11.0113C11.9302 11.5342 11.8485 12.0861 11.8701 12.639V12.66C11.8856 12.9795 11.5219 13.1727 11.266 12.9808C10.6435 12.4985 10.0205 12.1364 9.39722 11.8755C8.7943 11.634 8.19119 11.4734 7.60822 11.4529C6.30278 11.4128 4.57363 11.0113 3.32806 10.1661L3.58914 9.42292C3.63896 9.46779 3.6927 9.50811 3.74972 9.54339C4.87649 10.3074 6.44395 10.6696 7.64868 10.6883H7.66939C8.33199 10.7287 8.99534 10.8893 9.67864 11.1909C9.79725 11.2352 9.91592 11.2845 10.0346 11.3386C10.5712 11.5821 11.2002 11.3136 11.4026 10.7604L11.4069 10.7489C11.6284 10.1258 11.9898 9.52307 12.4924 8.96024C12.713 8.67919 12.8939 8.43806 13.0146 8.15646C13.1358 7.89537 13.216 7.61358 13.216 7.27231C13.216 7.13132 13.196 7.01122 13.1761 6.87004C12.6726 7.59363 12.231 7.73443 11.7892 7.53321C11.3875 7.37264 11.0855 6.95024 10.7437 6.48886C10.5831 6.28782 10.4427 6.08659 10.2618 5.88574C9.98057 5.54409 9.81925 5.44339 9.73962 5.52395C9.45839 5.74532 9.27787 6.58919 9.07627 7.43325C8.85547 8.43787 8.61452 9.4632 8.11193 9.84476C7.60933 10.2263 7.02618 10.0861 6.22296 9.0615C5.96187 8.72022 5.7405 8.3782 5.53909 8.07701C5.29815 7.71522 5.07734 7.35361 4.75583 6.99164C4.3545 6.52951 4.05257 6.60989 3.83177 6.91107C3.4903 7.37357 3.20926 8.17735 3.02781 8.76032C3.00785 8.8407 2.90734 9.12174 2.78705 9.44381L2.70667 9.64391V9.68419C2.56606 10.0659 2.42563 10.4479 2.38535 10.5281L1.68097 10.2472C1.72088 10.187 1.90177 9.66424 2.0823 9.20174L2.14253 9.02103C1.80126 8.51881 1.60041 7.93621 1.60041 7.27287C1.60041 6.08678 2.32324 5.02192 3.46923 4.25823C4.57419 3.53465 6.1023 3.09229 7.79004 3.09229C9.45802 3.09229 10.9856 3.53465 12.0905 4.25823C12.2921 4.37871 12.4527 4.51932 12.6332 4.65975C12.5329 4.90107 12.4327 5.14239 12.332 5.36319L12.3113 5.40348C12.1221 5.21452 11.9135 5.04611 11.6888 4.90107C10.6844 4.2381 9.31759 3.83602 7.79004 3.83602C6.2625 3.83602 4.87612 4.2381 3.89089 4.90107C2.9465 5.52414 2.36353 6.34824 2.36353 7.27287C2.3628 7.52563 2.4035 7.7768 2.484 8.0164C2.66546 7.47353 2.90622 6.8706 3.22754 6.44876C3.77042 5.7455 4.47386 5.48404 5.33787 6.50918C5.6799 6.9107 5.92084 7.2738 6.16198 7.65424C6.3632 7.95617 6.56405 8.25735 6.82514 8.61914C7.28764 9.20174 7.52858 9.34273 7.64906 9.24221C7.95099 9.02103 8.15146 8.13688 8.35231 7.25272C8.57405 6.288 8.79486 5.34324 9.23721 4.94154C9.67901 4.57956 10.1816 4.6398 10.845 5.38334C11.0255 5.60451 11.1864 5.82569 11.347 6.0465C11.6288 6.42881 11.8692 6.77008 12.0704 6.85046C12.3113 6.93084 12.6133 6.56942 13.1962 5.20263C13.2162 5.1023 13.3768 4.70003 13.4773 4.37871L13.5174 4.25823L13.0148 4.07715L14.4219 2.91158L14.5628 3.81588L14.7236 4.72036L14.2413 4.53946Z" fill="white"/>
</svg>
