<svg width="13" height="18" viewBox="0 0 13 18" fill="none" xmlns="http://www.w3.org/2000/svg">
<g clip-path="url(#clip0_933_9035)">
<path d="M6.96181 1.1709H0.748326C0.748326 1.1709 0.0809525 4.76327 3.31657 6.09195C4.99881 6.7809 5.52581 7.72037 5.52581 9.17432" stroke="black" stroke-miterlimit="10"/>
<path d="M6.04102 1.1709H12.2545C12.2545 1.1709 12.9219 4.76327 9.68626 6.09195C8.00402 6.7809 7.47702 7.38485 7.47702 9.17432" stroke="black" stroke-miterlimit="10"/>
<path d="M6.96181 16.829H0.748326C0.748326 16.829 0.0809525 13.2925 3.31657 11.9705C4.99881 11.2838 5.52581 10.3153 5.52581 8.86133" stroke="black" stroke-miterlimit="10"/>
<path d="M6.04102 16.829H12.2545C12.2545 16.829 12.9219 13.2925 9.68626 11.9705C8.00402 11.2838 7.47702 10.6508 7.47702 8.86133" stroke="black" stroke-miterlimit="10"/>
<path d="M8.71928 13.2499C7.00942 12.7757 6.50083 11.5298 6.50083 11.5298C6.50083 11.5298 5.99224 12.7891 4.28238 13.2633C2.57252 13.7375 2.5127 15.5002 2.5127 15.5002H10.489C10.489 15.5002 10.4291 13.7197 8.71928 13.2499Z" fill="black"/>
<path d="M3.5625 4.45264C3.78119 4.60354 4.02479 4.71702 4.2828 4.78816C5.99266 5.26237 6.50125 6.52395 6.50125 6.52395C6.71528 6.09037 7.02506 5.70802 7.40852 5.40412C7.79197 5.10023 8.23967 4.88227 8.7197 4.76579C8.96519 4.69696 9.19812 4.5913 9.41008 4.45264H3.5625Z" fill="black"/>
</g>
<defs>
<clipPath id="clip0_933_9035">
<rect width="13" height="17" fill="white" transform="translate(0 0.5)"/>
</clipPath>
</defs>
</svg>
