<svg fill="none" height="72" viewBox="0 0 360 72" width="360" xmlns="http://www.w3.org/2000/svg"><g fill="#f4b73f"><path d="m36.0018 54.8242-13.4244 8.1c-.45.3-.9252.4254-1.4256.3762-.5004-.0504-.9504-.2004-1.35-.45-.3996-.3-.6996-.675-.9-1.125s-.2256-.9504-.0756-1.5012l3.5262-15.3-11.8512-10.35c-.45-.3492-.7248-.7614-.8244-1.2366s-.0744-.9378.0756-1.3878.3996-.825.7488-1.125c.3504-.3.8256-.4998 1.4256-.5994l15.6744-1.35 6.075-14.4756c.2004-.5004.5256-.8754.9756-1.125s.9-.3744 1.35-.3744.9.1248 1.35.3744.7752.6246.9756 1.125l6.075 14.4756 15.6744 1.35c.6.0996 1.0752.2994 1.4256.5994.3492.3.5988.675.7488 1.125s.1752.9126.0756 1.3878-.3744.8874-.8244 1.2366l-11.8512 10.35 3.5262 15.3c.15.5508.1248 1.0512-.0756 1.5012s-.5004.825-.9 1.125c-.3996.2496-.8496.3996-1.35.45-.5004.0492-.9756-.0762-1.4256-.3762z"/><path d="m108.002 54.8242-13.4246 8.1c-.45.3-.9252.4254-1.4256.3762-.5004-.0504-.9504-.2004-1.35-.45-.3996-.3-.6996-.675-.9-1.125s-.2256-.9504-.0756-1.5012l3.5262-15.3-11.8512-10.35c-.45-.3492-.7248-.7614-.8244-1.2366s-.0744-.9378.0756-1.3878.3996-.825.7488-1.125c.3504-.3.8256-.4998 1.4256-.5994l15.6744-1.35 6.0748-14.4756c.201-.5004.526-.8754.976-1.125s.9-.3744 1.35-.3744.9.1248 1.35.3744.775.6246.975 1.125l6.075 14.4756 15.675 1.35c.6.0996 1.075.2994 1.425.5994s.599.675.749 1.125.175.9126.076 1.3878c-.1.4752-.375.8874-.825 1.2366l-11.851 10.35 3.526 15.3c.15.5508.125 1.0512-.075 1.5012-.201.45-.501.825-.9 1.125-.4.2496-.85.3996-1.35.45-.501.0492-.976-.0762-1.426-.3762z"/><path d="m180.002 54.8242-13.425 8.1c-.45.3-.925.4254-1.425.3762-.501-.0504-.951-.2004-1.35-.45-.4-.3-.7-.675-.9-1.125-.201-.45-.226-.9504-.076-1.5012l3.526-15.3-11.851-10.35c-.45-.3492-.725-.7614-.824-1.2366-.1-.4752-.075-.9378.075-1.3878s.4-.825.749-1.125c.351-.3.826-.4998 1.426-.5994l15.674-1.35 6.075-14.4756c.201-.5004.526-.8754.976-1.125s.9-.3744 1.35-.3744.9.1248 1.35.3744.775.6246.975 1.125l6.075 14.4756 15.675 1.35c.6.0996 1.075.2994 1.425.5994s.599.675.749 1.125.175.9126.076 1.3878c-.1.4752-.375.8874-.825 1.2366l-11.851 10.35 3.526 15.3c.15.5508.125 1.0512-.075 1.5012-.201.45-.501.825-.9 1.125-.4.2496-.85.3996-1.35.45-.501.0492-.976-.0762-1.426-.3762z"/><path d="m252.002 54.8242-13.425 8.1c-.45.3-.925.4254-1.425.3762-.501-.0504-.951-.2004-1.35-.45-.4-.3-.7-.675-.9-1.125-.201-.45-.226-.9504-.076-1.5012l3.526-15.3-11.851-10.35c-.45-.3492-.725-.7614-.824-1.2366-.1-.4752-.075-.9378.075-1.3878s.4-.825.749-1.125c.351-.3.826-.4998 1.426-.5994l15.674-1.35 6.075-14.4756c.201-.5004.526-.8754.976-1.125s.9-.3744 1.35-.3744.9.1248 1.35.3744.775.6246.975 1.125l6.075 14.4756 15.675 1.35c.6.0996 1.075.2994 1.425.5994s.599.675.749 1.125.175.9126.076 1.3878c-.1.4752-.375.8874-.825 1.2366l-11.851 10.35 3.526 15.3c.15.5508.125 1.0512-.075 1.5012-.201.45-.501.825-.9 1.125-.4.2496-.85.3996-1.35.45-.501.0492-.976-.0762-1.426-.3762z"/><path d="m324.002 54.8242-13.425 8.1c-.45.3-.925.4254-1.425.3762-.501-.0504-.951-.2004-1.35-.45-.4-.3-.7-.675-.9-1.125-.201-.45-.226-.9504-.076-1.5012l3.526-15.3-11.851-10.35c-.45-.3492-.725-.7614-.824-1.2366-.1-.4752-.075-.9378.075-1.3878s.4-.825.749-1.125c.351-.3.826-.4998 1.426-.5994l15.674-1.35 6.075-14.4756c.201-.5004.526-.8754.976-1.125s.9-.3744 1.35-.3744.9.1248 1.35.3744.775.6246.975 1.125l6.075 14.4756 15.675 1.35c.6.0996 1.075.2994 1.425.5994s.599.675.749 1.125.175.9126.076 1.3878c-.1.4752-.375.8874-.825 1.2366l-11.851 10.35 3.526 15.3c.15.5508.125 1.0512-.075 1.5012-.201.45-.501.825-.9 1.125-.4.2496-.85.3996-1.35.45-.501.0492-.976-.0762-1.426-.3762z"/></g></svg>