<svg width="81" height="61" fill="none" xmlns="http://www.w3.org/2000/svg"><path d="M0 0h81v61H0V0Z" fill="#006"/><path fill-rule="evenodd" clip-rule="evenodd" d="m37.943 49.88-5.53.483.759 5.516-3.81-4.029-3.81 4.029.76-5.516-5.53-.483 4.77-2.834-3.075-4.638 5.19 1.97 1.695-5.3 1.709 5.3 5.189-1.97-3.076 4.638 4.76 2.834Zm23.642 5.084-1.342-2.008 2.253.851.734-2.3.734 2.3 2.253-.851-1.329 2.008 2.076 1.232-2.405.216.33 2.402-1.646-1.766-1.67 1.766.328-2.402-2.404-.203 2.088-1.245Zm-.013-35.85-1.329-2.009 2.253.852.734-2.3.734 2.3 2.253-.852-1.329 2.008 2.076 1.246-2.405.203.33 2.402-1.646-1.754-1.67 1.741.328-2.389-2.404-.203 2.075-1.246ZM48.195 33.676l-1.33-2.008 2.254.852.734-2.3.746 2.3 2.253-.852-1.341 2.008 2.075 1.233-2.404.216.341 2.402-1.67-1.767-1.646 1.767.317-2.402-2.405-.203 2.076-1.246Zm25.3-3.584-1.355-2.008 2.253.852.734-2.3.747 2.3 2.253-.852-1.33 2.008 2.064 1.233-2.405.216.33 2.39-1.646-1.754-1.67 1.753.328-2.389-2.404-.216 2.1-1.233Zm-4.898 10.574-1.304.826.367-1.513-1.177-.99 1.531-.128.583-1.423.594 1.436 1.532.114-1.177.992.367 1.512" fill="#fff"/><path d="M0 0h40.5v30.5H0V0Z" fill="#006"/><path d="m4.746 0 15.44 11.501L35.565 0H40.5v3.94L25.312 15.313 40.5 26.624V30.5h-5.063L20.25 19.126 5.126 30.5H0v-3.813l15.124-11.31L0 4.067V0h4.746Z" fill="#fff"/><path d="M26.831 17.855 40.5 27.958V30.5L23.35 17.855h3.481Zm-11.643 1.271.38 2.224-12.15 9.15H0l15.188-11.374ZM40.5 0v.19L24.743 12.137l.127-2.795L37.335 0H40.5ZM0 0l15.124 11.183h-3.797L0 2.67V0Z" fill="#C8102E"/><path d="M15.25 0v30.5h10.126V0H15.25ZM0 10.167v10.166h40.5V10.167H0Z" fill="#fff"/><path d="M0 12.264v6.1h40.5v-6.1H0ZM17.276 0v30.5h6.075V0h-6.075Z" fill="#C8102E"/><path d="M10 1h61v-2H10v2Zm70 9v41h2V10h-2Zm-9 50H10v2h61v-2ZM1 51V10h-2v41h2Zm9 9a9 9 0 0 1-9-9h-2c0 6.075 4.925 11 11 11v-2Zm70-9a9 9 0 0 1-9 9v2c6.075 0 11-4.925 11-11h-2ZM71 1a9 9 0 0 1 9 9h2c0-6.075-4.925-11-11-11v2ZM10-1C3.925-1-1 3.925-1 10h2a9 9 0 0 1 9-9v-2Z" fill="#D9D9D9"/></svg>