<svg width="81" height="61" fill="none" xmlns="http://www.w3.org/2000/svg"><g clip-path="url(#a)"><path d="M19.001 0h42.988v61H19V0Z" fill="#fff"/><path d="M-2.487 0H19v61H-2.487V0Zm64.475 0h21.488v61H62l-.012-61ZM25.444 29.476l-1.685.571 7.771 6.85c.594 1.752-.201 2.264-.712 3.194l8.425-1.072-.202 8.518 1.756-.048-.391-8.458 8.447 1.012c-.522-1.108-.984-1.692-.51-3.455l7.76-6.493-1.352-.5c-1.116-.858.474-4.135.712-6.208 0 0-4.521 1.561-4.818.739l-1.163-2.228-4.117 4.551c-.45.107-.64-.071-.747-.453l1.898-9.507-3.014 1.704c-.249.119-.498.024-.664-.274L39.93 12.08l-2.99 6.064c-.226.215-.451.238-.64.096l-2.872-1.62 1.732 9.423c-.142.381-.474.477-.854.274l-3.951-4.491c-.51.834-.855 2.18-1.543 2.49-.676.286-2.966-.572-4.497-.906.522 1.894 2.16 5.04 1.128 6.076v-.011Z" fill="#D52B1E"/></g><path d="M10 1h61v-2H10v2Zm70 9v41h2V10h-2Zm-9 50H10v2h61v-2ZM1 51V10h-2v41h2Zm9 9a9 9 0 0 1-9-9h-2c0 6.075 4.925 11 11 11v-2Zm70-9a9 9 0 0 1-9 9v2c6.075 0 11-4.925 11-11h-2ZM71 1a9 9 0 0 1 9 9h2c0-6.075-4.925-11-11-11v2ZM10-1C3.925-1-1 3.925-1 10h2a9 9 0 0 1 9-9v-2Z" fill="#D9D9D9"/><defs><clipPath id="a"><path d="M0 10C0 4.477 4.477 0 10 0h61c5.523 0 10 4.477 10 10v41c0 5.523-4.477 10-10 10H10C4.477 61 0 56.523 0 51V10Z" fill="#fff"/></clipPath></defs></svg>