<svg width="81" height="61" fill="none" xmlns="http://www.w3.org/2000/svg"><path d="M0 0h81v61H0V0Z" fill="#012169"/><path d="m9.492 0 30.881 23.002L71.128 0H81v7.88L50.625 30.626 81 53.247V61H70.875L40.5 38.252 10.252 61H0v-7.625l30.248-22.62L0 8.132V0h9.492Z" fill="#fff"/><path d="M53.663 35.71 81 55.917V61L46.702 35.71h6.96Zm-23.288 2.542.76 4.448L6.834 61H0l30.375-22.748ZM81 0v.381L49.486 24.273l.253-5.592L74.672 0H81ZM0 0l30.248 22.367h-7.593L0 5.337V0Z" fill="#C8102E"/><path d="M30.502 0v61h20.25V0h-20.25ZM0 20.333v20.334h81V20.333H0Z" fill="#fff"/><path d="M0 24.527v12.2h81v-12.2H0ZM34.552 0v61h12.15V0h-12.15Z" fill="#C8102E"/><path d="M10 1h61v-2H10v2Zm70 9v41h2V10h-2Zm-9 50H10v2h61v-2ZM1 51V10h-2v41h2Zm9 9a9 9 0 0 1-9-9h-2c0 6.075 4.925 11 11 11v-2Zm70-9a9 9 0 0 1-9 9v2c6.075 0 11-4.925 11-11h-2ZM71 1a9 9 0 0 1 9 9h2c0-6.075-4.925-11-11-11v2ZM10-1C3.925-1-1 3.925-1 10h2a9 9 0 0 1 9-9v-2Z" fill="#D9D9D9"/></svg>