<svg width="81" height="61" fill="none" xmlns="http://www.w3.org/2000/svg"><g clip-path="url(#a)" fill-rule="evenodd" clip-rule="evenodd"><path d="M0 0h115.425v4.694H0V0Zm0 9.388h115.425v4.694H0V9.389Zm0 9.377h115.425v4.706H0v-4.706Zm0 9.388h115.425v4.694H0v-4.694Zm0 9.388h115.425v4.694H0v-4.694Zm0 9.377h115.425v4.694H0v-4.695Zm0 9.388h115.425V61H0v-4.694Z" fill="#BD3D44"/><path d="M0 4.694h115.425v4.694H0V4.694Zm0 9.389h115.425v4.682H0v-4.683Zm0 9.376h115.425v4.694H0v-4.694Zm0 9.388h115.425v4.694H0v-4.694Zm0 9.389h115.425v4.694H0v-4.694Zm0 9.376h115.425v4.694H0v-4.694Z" fill="#fff"/><path d="M0 0h46.168v32.847H0V0Z" fill="#192F5D"/><path d="m3.844 1.406.427 1.298h1.353l-1.092.799.416 1.31-1.104-.81-1.091.798.415-1.298-1.104-.799h1.377l.403-1.298Zm7.7 0 .416 1.298h1.364l-1.103.799.415 1.31-1.091-.81-1.104.798.415-1.298-1.091-.799h1.353l.427-1.298Zm7.69 0 .427 1.298H21l-1.091.799.415 1.31-1.104-.81-1.091.798.415-1.298-1.103-.799h1.364l.427-1.298Zm7.7 0 .415 1.298h1.365l-1.104.799.427 1.31-1.103-.81-1.104.798.428-1.298-1.104-.799h1.353l.427-1.298Zm7.689 0 .427 1.298h1.352l-1.091.799.415 1.31-1.103-.81-1.092.798.415-1.298-1.091-.799h1.352l.416-1.298Zm7.7 0 .415 1.298h1.365l-1.104.799.428 1.31-1.104-.81-1.103.798.427-1.298-1.104-.799h1.365l.415-1.298ZM7.7 4.694l.416 1.299H9.48l-1.103.798.403 1.298-1.068-.798-1.103.798L7 6.791l-1.068-.799h1.353L7.7 4.694Zm7.69 0 .426 1.299h1.353l-1.104.798.428 1.298-1.104-.798-1.103.798.427-1.298-1.104-.799h1.365l.415-1.298Zm7.7 0 .415 1.299h1.364l-1.103.798.415 1.298-1.091-.798-1.104.798.415-1.298-1.091-.798h1.353l.427-1.3Zm7.688 0 .428 1.299h1.352l-1.104.798.428 1.298-1.104-.798-1.091.798.415-1.298-1.104-.799h1.377l.403-1.298Zm7.7 0 .416 1.299h1.365l-1.104.798.415 1.298-1.091-.798-1.104.798.416-1.298-1.092-.799h1.353l.427-1.298ZM3.845 7.97l.427 1.322h1.353l-1.092.798.416 1.299-1.104-.81-1.091.81.415-1.31-1.104-.799h1.377l.403-1.31Zm7.7 0 .416 1.31h1.364l-1.103.798.415 1.299-1.091-.81-1.104.81.415-1.31-1.091-.8h1.353l.427-1.297Zm7.69 0 .427 1.31H21l-1.091.798.415 1.299-1.104-.81-1.091.81.415-1.31-1.103-.799h1.364l.427-1.298Zm7.7 0 .415 1.31h1.365l-1.104.798.427 1.299-1.103-.81-1.104.81.428-1.31-1.104-.799h1.353l.427-1.298Zm7.689 0 .427 1.31h1.352l-1.091.798.415 1.299-1.103-.81-1.092.81.415-1.31-1.091-.799h1.352l.416-1.298Zm7.7 0 .415 1.31h1.365l-1.104.798.428 1.299-1.104-.81-1.103.81.427-1.31-1.104-.799h1.365l.415-1.298ZM7.7 11.259l.416 1.298H9.48l-1.103.798.415 1.311-1.092-.81-1.103.798.415-1.299-1.091-.798h1.352L7.7 11.26Zm7.69 0 .426 1.298h1.353l-1.104.798.428 1.311-1.104-.81-1.103.798.427-1.299-1.104-.798h1.365l.415-1.298Zm7.7 0 .415 1.298h1.364l-1.103.798.415 1.311-1.091-.81-1.104.798.415-1.299-1.091-.798h1.353l.427-1.298Zm7.688 0 .428 1.298h1.352l-1.092.798.416 1.311-1.104-.81-1.091.798.415-1.299-1.104-.798h1.377l.403-1.298Zm7.7 0 .416 1.298h1.365l-1.104.798.415 1.311-1.091-.81-1.104.798.416-1.299-1.092-.798h1.353l.427-1.298ZM3.845 14.547l.427 1.299h1.353l-1.092.798.416 1.31-1.104-.81-1.091.798.415-1.298-1.104-.798h1.377l.403-1.3Zm7.7 0 .416 1.299h1.364l-1.103.798.415 1.299-1.091-.799-1.104.798.415-1.298-1.091-.798h1.353l.427-1.3Zm7.69 0 .427 1.299H21l-1.091.798.415 1.31-1.104-.81-1.091.798.415-1.298-1.103-.798h1.364l.427-1.3Zm7.7 0 .415 1.299h1.365l-1.104.798.427 1.31-1.103-.81-1.104.798.428-1.298-1.104-.798h1.353l.427-1.3Zm7.689 0 .427 1.299h1.352l-1.091.798.415 1.31-1.103-.81-1.092.798.415-1.298-1.091-.798h1.352l.416-1.3Zm7.7 0 .415 1.299h1.365l-1.104.798.428 1.31-1.104-.81-1.103.798.427-1.298-1.104-.798h1.365l.415-1.3ZM7.7 17.835l.416 1.299H9.48l-1.103.798.415 1.299-1.092-.81-1.103.81.415-1.31-1.091-.8h1.352l.427-1.286Zm7.69 0 .426 1.299h1.353l-1.104.798.428 1.299-1.104-.81-1.103.81.427-1.31-1.104-.8h1.365l.415-1.286Zm7.7 0 .415 1.299h1.364l-1.103.798.415 1.299-1.091-.81-1.104.81.415-1.31-1.091-.8h1.353l.427-1.286Zm7.688 0 .428 1.299h1.352l-1.092.798.416 1.299-1.104-.81-1.091.81.415-1.31-1.104-.8h1.377l.403-1.286Zm7.7 0 .416 1.299h1.365l-1.104.798.415 1.299-1.091-.81-1.104.81.416-1.31-1.092-.8h1.353l.427-1.286ZM3.845 21.112l.427 1.31h1.353l-1.092.798.416 1.287-1.104-.798-1.091.798.415-1.299-1.104-.798h1.377l.403-1.298Zm7.7 0 .416 1.31h1.364l-1.103.798.427 1.287-1.103-.798-1.104.798.427-1.299-1.103-.798h1.353l.427-1.298Zm7.69 0 .427 1.31H21l-1.091.798.415 1.287-1.104-.798-1.091.798.415-1.299-1.103-.798h1.364l.427-1.298Zm7.7 0 .415 1.31h1.365l-1.104.798.427 1.287-1.103-.798-1.104.798.428-1.299-1.104-.798h1.353l.427-1.298Zm7.689 0 .427 1.31h1.352l-1.091.798.415 1.287-1.103-.798-1.092.798.415-1.299-1.091-.798h1.352l.416-1.298Zm7.7 0 .415 1.31h1.365l-1.104.798.428 1.287-1.104-.798-1.103.798.427-1.299-1.104-.798h1.365l.415-1.298ZM7.7 24.4l.416 1.299H9.48l-1.103.798.415 1.31-1.092-.81-1.103.798.415-1.298-1.091-.799h1.352L7.7 24.4Zm7.69 0 .426 1.299h1.353l-1.104.798.428 1.31-1.104-.81-1.103.798.427-1.298-1.104-.799h1.365l.415-1.298Zm7.7 0 .415 1.299h1.364l-1.103.798.415 1.31-1.091-.81-1.104.798.415-1.298-1.091-.799h1.353l.427-1.298Zm7.688 0 .428 1.299h1.352l-1.092.798.416 1.31-1.104-.81-1.091.798.415-1.298-1.104-.799h1.377l.403-1.298Zm7.7 0 .416 1.299h1.365l-1.104.798.415 1.31-1.091-.81-1.104.798.416-1.298-1.092-.799h1.353l.427-1.298ZM3.845 27.688l.427 1.299h1.353l-1.092.798.416 1.299-1.104-.799-1.091.799.415-1.31-1.104-.8h1.377l.403-1.286Zm7.7 0 .416 1.299h1.364l-1.103.798.427 1.299-1.103-.799-1.104.799.427-1.31-1.103-.8h1.353l.427-1.286Zm7.69 0 .427 1.299H21l-1.068.798.416 1.299-1.104-.799-1.091.799.415-1.31-1.104-.8h1.365l.403-1.286Zm7.7 0 .415 1.299h1.365l-1.104.798.427 1.299-1.103-.799-1.104.799.428-1.31-1.104-.8h1.353l.427-1.286Zm7.689 0 .427 1.299h1.352l-1.091.798.415 1.299-1.103-.799-1.092.799.415-1.31-1.091-.8h1.352l.416-1.286Zm7.7 0 .415 1.299h1.365l-1.104.798.428 1.299-1.104-.799-1.103.799.427-1.31-1.104-.8h1.365l.415-1.286Z" fill="#fff"/></g><path d="M8 1h65v-2H8v2Zm72 7v45h2V8h-2Zm-7 52H8v2h65v-2ZM1 53V8h-2v45h2Zm7 7a7 7 0 0 1-7-7h-2a9 9 0 0 0 9 9v-2Zm72-7a7 7 0 0 1-7 7v2a9 9 0 0 0 9-9h-2ZM73 1a7 7 0 0 1 7 7h2a9 9 0 0 0-9-9v2ZM8-1a9 9 0 0 0-9 9h2a7 7 0 0 1 7-7v-2Z" fill="#D9D9D9"/><defs><clipPath id="a"><path d="M0 8a8 8 0 0 1 8-8h65a8 8 0 0 1 8 8v45a8 8 0 0 1-8 8H8a8 8 0 0 1-8-8V8Z" fill="#fff"/></clipPath></defs></svg>